<?xml version="1.0" encoding="UTF-8"?>
<svg width="2133.3" height="466.67" version="1.1" viewBox="0 0 2133.3 466.67" xmlns="http://www.w3.org/2000/svg">
	<path d="m1193.3 396.83c-3.9163-1.4459-9.7221-10.201-12.086-18.225-0.9181-3.1167-2.1093-5.6667-2.6471-5.6667-1.0527 0-2.5411-4.9704-3.3529-11.197-0.277-2.125-1.0887-5.7249-1.8038-8-0.715-2.275-1.7177-7.1364-2.2281-10.803-0.5104-3.6667-1.7385-8.9806-2.7293-11.809-0.9907-2.8281-1.5455-5.5557-1.233-6.0614 0.3125-0.50568-0.5839-4.4116-1.9919-8.6798-1.4081-4.2682-2.1823-8.3718-1.7203-9.1192 0.4619-0.74741-1.0035 4e-3 -3.2565 1.6696-4.3221 3.1955-14.034 14.857-21.628 25.969-4.5804 6.7028-7.2773 10.208-10.323 13.417-0.9167 0.96579-1.6667 2.3453-1.6667 3.0656 0 1.6709-11.584 7.3577-16.085 7.8965-4.4422 0.53169-7.5578-2.9805-8.6384-9.7379-0.8328-5.2086-0.6449-5.5268 9.0372-15.298 5.4383-5.4886 13.121-12.679 17.074-15.979 11.624-9.706 27.654-26.656 28.538-30.176 0.4497-1.7917 0.095-5.7852-0.7872-8.8744-0.8827-3.0892-1.4624-6.415-1.2882-7.3906 0.1741-0.97565-0.6208-3.2045-1.7665-4.9531s-2.0831-4.2803-2.0831-5.6261-0.5008-3.0169-1.1129-3.7136c-2.2543-2.5657-5.7713-14.08-6.3855-20.906-0.3478-3.8652-2.703-12.947-5.2336-20.182-2.5307-7.2348-4.6013-14.463-4.6013-16.062 0-1.5995-2.399-10.049-5.3311-18.777s-5.2156-16.5-5.0744-17.271c0.1411-0.77133-0.8388-5.0024-2.1775-9.4024-1.3388-4.4-2.6275-9.5-2.8638-11.333-0.2362-1.8333-1.3574-5.9588-2.4914-9.1676-1.134-3.2089-2.0618-7.2235-2.0618-8.9213 0-4.0482-2.24-5.3559-3.324-1.9405-0.4671 1.4718-3.2114 5.6643-6.0985 9.3167s-6.3681 8.607-7.7354 11.01c-1.3674 2.4031-5.6612 9.4693-9.5418 15.703s-9.7065 16.074-12.946 21.869c-7.1818 12.845-8.8781 15.548-15.324 24.424l-5.054 6.9593 7.0119 2.0001c7.7771 2.2183 24.388 2.8636 47.79 1.8563 8.4946-0.3656 16.82-0.15594 18.501 0.46592 2.7701 1.0247 2.9954 1.767 2.4041 7.9204-0.3588 3.7343-1.4843 7.3165-2.5011 7.9605-1.0168 0.64393-1.3275 1.18-0.6905 1.1912 1.338 0.0236-4.6513 8.3733-9.7115 13.539-3.7728 3.8514-18.808 29.733-32.132 55.312-1.957 3.7568-4.723 8.5568-6.1467 10.667-1.4238 2.1099-3.6708 6.2153-4.9935 9.1232-1.3226 2.9079-4.1529 7.4942-6.2895 10.192-2.1365 2.6977-3.8846 5.2973-3.8846 5.777s-2.1 4.155-4.6667 8.1674c-2.5667 4.0123-4.6667 7.6531-4.6667 8.0906s-2.0156 3.5759-4.4792 6.9741c-2.4635 3.3983-5.3135 7.7091-6.3333 9.5797-3.7575 6.8925-7.2604 12.385-10.044 15.748l-2.8563 3.4517-7.6172-1.984c-7.2326-1.8838-7.7159-2.2758-9.5706-7.7626-1.0743-3.1782-1.6495-6.0823-1.2782-6.4536 0.3713-0.3713 0.07-2.2634-0.6689-4.2047-0.7392-1.9413-1.8916-6.2296-2.5608-9.5296s-2.1399-9.9-3.2682-14.667c-1.1283-4.7667-2.2927-10.467-2.5874-12.667-0.2948-2.2-1.4353-6.4958-2.5344-9.5461-1.099-3.0504-1.7525-5.7919-1.452-6.0924 0.3004-0.30043-4.575-16.056-10.834-35.012-6.2593-18.956-11.243-35.715-11.075-37.241 0.4502-4.0924-1.5135-11.442-3.0571-11.442-0.7361 0-1.0783-0.75-0.7603-1.6667s-0.2114-3.9337-1.1765-6.7046c-0.965-2.7708-2.0281-7.2708-2.3624-10-0.3342-2.7292-1.2548-6.6512-2.0457-8.7156-0.7909-2.0644-1.438-5.179-1.438-6.9213 0-1.7423-0.4821-3.4658-1.0712-3.8299-1.1834-0.73138-9.1979 6.2205-12.304 10.672-3.3548 4.8088-14.773 17.468-26.178 29.024-8.7475 8.8632-11.659 11.03-14.818 11.03-4.2624 0-6.0838-2.0639-8.923-10.111-1.6877-4.7834-1.6331-4.9403 3.0694-8.8239 10.977-9.0652 36.173-32.605 45.441-42.453 3.3642-3.5747 6.7338-7.1176 7.488-7.8731 0.9398-0.94141-0.8432-8.0451-5.6667-22.576-3.8708-11.661-7.0379-22.217-7.0379-23.458s-2.466-9.6558-5.4801-18.7l-5.48-16.444-3.5929 3.4422c-1.9761 1.8932-4.0677 3.4422-4.6481 3.4422-1.3453 0-29.292 26.398-29.98 28.319-0.28316 0.79022-6.6188 7.4918-14.079 14.892-7.4604 7.4005-29.642 30.856-49.292 52.122-33.425 36.175-79.092 82-81.717 82-0.6405 0-4.1194 3-7.731 6.6667s-7.2267 6.6667-8.0338 6.6667c-0.80702 0-3.1918 1.8-5.2996 4-4.1629 4.3451-8.5422 5.0663-14.291 2.3534-3.9674-1.8723-5.9611-7.199-6.8693-18.353-0.3284-4.0333-1.0325-8.8333-1.5646-10.667-2.1661-7.4623-4.2861-55.952-2.5678-58.733 1.2699-2.0548-1.8054-2.5776-19.559-3.325-32.25-1.3577-36.217-1.3196-65.148 0.62483-15.767 1.0597-32.867 1.8217-38 1.6934-9.8-0.24492-45.349-1.0108-68-1.465-7.3333-0.14705-22.785 0.39844-34.336 1.2122-11.551 0.81377-21.55 1.1411-22.22 0.72742-0.66936-0.41368-9.8182-0.13676-20.331 0.61539-21.704 1.5529-35.855 1.7006-59.78 0.62424-32.208-1.449-36.757-1.4925-47.333-0.45217-14.074 1.3844-43.132 2.846-54 2.7163-55.231-0.65948-115.71-0.0452-161.67 1.6419-13.949 0.51208-21 0.31223-21-0.59516 0-1.3036-13.309-1.1716-71.213 0.70671-21.676 0.70313-22.01 0.52833-22.078-11.553-0.04186-7.4629 0.01364-7.5727 4.2909-8.4873 2.3833-0.50961 4.9333-1.3758 5.6667-1.9249 3.3509-2.5091 22.925-3.2998 48.667-1.9661 15.116 0.7832 28.388 0.75752 48-0.0929 5.5-0.23848 15.7-0.38443 22.667-0.32432 6.9667 0.0601 27.667-4e-3 46-0.1422 18.333-0.13831 77.733-0.40708 132-0.59729 54.267-0.1902 99.567-0.72095 100.67-1.1794 5.7401-2.3925 22.634-2.9781 48-1.6639 8.4333 0.43695 20.433 0.69349 26.667 0.57012 17.901-0.35433 23.608-0.33133 40.667 0.16392 8.8 0.25549 33.1-0.0451 54-0.66791 46.254-1.3784 112.19-1.7423 124-0.68437 4.7667 0.42683 9.8636 0.35924 11.326-0.15017 4.2999-1.4974 9.6119 1.182 11.899 6.0018 2.6732 5.6334 2.7157 18.193 0.1076 31.823-2.5868 13.518-2.5346 23.278 0.15869 29.72 1.1872 2.8396 2.6971 6.578 3.3554 8.3078 0.92056 2.4187 1.6051 2.8062 2.9642 1.6782 0.97199-0.80668 2.0433-1.1907 2.3806-0.85335 0.33734 0.33735 5.8512-4.6489 12.253-11.081l11.64-11.694-2.2192-5.2644c-4.5989-10.91-5.4838-20.145-5.1874-54.138 0.28496-32.682 0.34068-33.287 3.3666-36.507 1.6922-1.8013 3.3534-2.9986 3.6913-2.6606s1.7855-0.012 3.2168-0.7782c1.9982-1.0694 3.1883-0.86236 5.1266 0.89177 1.3884 1.2565 2.245 2.7363 1.9038 3.2885-0.34131 0.55224 0.21008 1.6934 1.2253 2.536 2.8448 2.361 3.4625 8.2245 3.6679 34.817 0.1399 18.115 0.70022 25.817 2.1293 29.269 3.5716 8.6273 4.1685 8.7412 10.926 2.0853 3.388-3.337 6.8407-6.0674 7.6728-6.0674 2.0527 0 53.634-55.261 53.75-57.583 0.0947-1.9091 25.158-26.205 29.235-28.339 5.0653-2.6519 17.411-13.265 17.411-14.967 0-0.45937 2.0522-3.3397 4.5606-6.4008 2.5083-3.0611 5.704-7.6229 7.1015-10.137 1.3975-2.5145 5.4953-6.8513 9.1061-9.6374 6.1744-4.7641 21.586-12.934 24.398-12.934 0.7028 0 1.4778-0.49892 1.7223-1.1087 0.7426-1.8527 9.1111 1.0376 9.1111 3.1468 0 1.079 0.45 1.9688 1 1.9772 0.55 8e-3 2.0041 2.2584 3.2315 5 1.2272 2.7416 3.7772 8.3976 5.6666 12.569 1.8894 4.1713 3.4352 9.1607 3.4352 11.088 0 1.927 0.5862 4.5989 1.3027 5.9376 0.7164 1.3387 1.5793 4.4493 1.9175 6.9123 0.3381 2.4631 1.2513 7.4783 2.0292 11.145 0.7779 3.6667 2.0726 9.9637 2.8771 13.993 0.8046 4.0298 2.0093 8.348 2.6773 9.596 0.6679 1.248 1.3384 3.7681 1.4901 5.6001 0.23 2.7793 0.612 3.067 2.3068 1.7374 1.1172-0.87648 2.8252-2.1936 3.7957-2.9269 0.9705-0.73333 6.2468-7.3333 11.725-14.667 15.235-20.394 15.606-20.868 19.88-25.413 5.2231-5.5548 15.617-9.2601 19.394-6.9137 3.5727 2.2196 5.8661 10.724 3.8884 14.419-1.7478 3.2658-14.678 16.228-26.507 26.575-8.8425 7.7336-16.51 15.21-23.907 23.313-4.7549 5.2082-4.6873 4.5544-2.0699 20.015 0.4961 2.9304 1.7708 6.654 2.8327 8.2747 1.062 1.6207 1.5693 3.5316 1.1275 4.2466-0.4419 0.71491-0.2404 1.6478 0.4478 2.0731 1.8743 1.1584 6.5679 16.396 7.6221 24.744 0.5093 4.0333 2.931 12.951 5.3815 19.816 2.4505 6.8655 4.4554 13.798 4.4554 15.405 0 1.6071 2.1296 9.1899 4.7324 16.851 2.6028 7.6608 4.9818 15.729 5.2868 17.929s1.7352 7.5724 3.1783 11.939 2.368 8.3524 2.0555 8.858c-0.3125 0.50567 0.3647 3.5333 1.505 6.728 1.1402 3.1948 2.3316 7.7517 2.6474 10.126 0.3159 2.3748 1.3791 6.2748 2.3627 8.6667l1.7885 4.3489 2.2559-4.3333c1.2408-2.3833 2.8406-4.3333 3.5551-4.3333s1.2991-0.64189 1.2991-1.4264 1.8-4.0426 4-7.2402c2.2-3.1976 4-6.1886 4-6.6467 0-0.45812 2.2952-4.25 5.1005-8.4264 2.8052-4.1764 6.5078-10.594 8.2278-14.26 1.7201-3.6667 4.6967-9.0667 6.6147-12 1.9181-2.9333 4.4674-7.4333 5.6653-10 9.9006-21.214 12.824-27.699 13.56-30.076 0.4667-1.5087 3.5756-5.3421 6.9087-8.5187 8.3213-7.9306 7.8846-11.437-1.4101-11.323-10.736 0.13226-19.331 1.168-19.332 2.3299-6e-4 0.59328-0.4511 0.8045-1.0011 0.46941-0.55-0.33511-5.5 0.26743-11 1.339-14.103 2.7476-23.547 2.5143-30.165-0.74511-6.195-3.0512-7.6421-6.3475-5.5165-12.566 1.5155-4.434 12.356-20.86 14.886-22.555 0.8038-0.53878 0.9611-0.98878 0.3494-1-0.6116-0.0107 0.7384-2.3568 3-5.2123 2.2617-2.8555 4.1121-5.5956 4.1121-6.089s1.4338-2.807 3.1863-5.1414 5.1299-8.1444 7.5053-12.911c2.3755-4.7667 4.7626-8.9667 5.3047-9.3333 0.5421-0.36667 2.1761-3.0667 3.631-6 3.3227-6.6988 12.236-23.433 16.69-31.333 1.8602-3.3 6.1992-11.4 9.6421-18 3.443-6.6 7.0407-12.9 7.9951-14 0.9543-1.1 3.0927-4.698 4.752-7.9955 1.6592-3.2975 3.9726-6.6944 5.1407-7.5485 2.5858-1.8907 12.789-1.3611 15.392 0.79889 1.6698 1.3859 4.3124 11.187 3.6936 13.699-0.1292 0.52456 0.4031 2.6246 1.183 4.6667 0.7798 2.0421 1.631 5.3769 1.8914 7.4106s1.0465 5.6337 1.7469 8c0.7003 2.3663 1.9789 7.9023 2.8412 12.302 0.8624 4.4 2.4313 11.053 3.4865 14.784s1.9186 7.654 1.9186 8.7176c0 1.0636 5.0819 17.276 11.293 36.028s11.058 35.315 10.77 36.808 1.5175 8.8562 4.0112 16.363c2.4936 7.5067 4.251 14.106 3.9054 14.666-0.3457 0.55934 0.2674 3.5563 1.3624 6.6599s1.9909 7.0675 1.9909 8.8086c0 1.7411 0.6297 3.1657 1.3994 3.1657 1.7925 0 8.7596-6.9722 14.656-14.667 6.04-7.8819 10.539-12.931 22.611-25.376 8.3334-8.5909 10.833-10.402 15-10.865 3.4975-0.38906 5-0.0356 5 1.1761 0 0.95275 0.522 1.7323 1.16 1.7323 2.0314 0 4.8221 12.108 3.044 13.207-1.7012 1.0514-15.733 13.517-25.385 22.552-13.694 12.819-15.807 14.889-23.664 23.188l-8.1783 8.6379 6.4824 19.208c3.5652 10.564 6.6964 21.01 6.9582 23.212 0.2617 2.2024 3.042 11.705 6.1785 21.117l5.7028 17.112 4.2474-4.1168c2.3361-2.2642 4.7266-4.1168 5.3122-4.1168 1.3517 0 29.298-26.39 29.99-28.319 0.2832-0.79023 6.6188-7.4918 14.079-14.892 7.4604-7.4005 29.642-30.856 49.292-52.122 33.425-36.175 79.092-82 81.717-82 0.6405 0 4.1195-3 7.7309-6.6667 3.6115-3.6667 7.2267-6.6667 8.0338-6.6667 0.807 0 3.1918-1.8 5.2996-4 4.1629-4.3451 8.5422-5.0663 14.291-2.3534 3.9674 1.8723 5.961 7.199 6.8693 18.353 0.3284 4.0333 1.0324 8.8333 1.5647 10.667 2.166 7.4623 4.2861 55.952 2.5678 58.733-1.2634 2.0442 1.7035 2.5293 20.188 3.3002 33.172 1.3836 36.836 1.3502 65.853-0.60006 15.767-1.0597 32.867-1.8217 38-1.6934 9.8 0.24492 45.35 1.0108 68 1.465 7.3333 0.14706 22.784-0.39844 34.336-1.2122s21.55-1.1411 22.22-0.72743c0.6693 0.41368 9.7473 0.14258 20.173-0.60248 21.544-1.5395 38.568-1.7165 62.605-0.65081 32.983 1.4624 38.021 1.5272 39.38 0.50676 1.3559-1.0177 44.303-2.8216 62.62-2.6303 5.1334 0.0536 22.533 0.0204 38.667-0.074 32.84-0.19193 45.913-0.11893 50.333 0.28104 1.65 0.14931 14.4-0.11173 28.333-0.58023 13.933-0.46842 34.183-1.1443 45-1.5018 10.817-0.35759 19.667-0.14425 19.667 0.47408 0 1.1264 15.267 1.021 55.552-0.38347l21.552-0.7514 2.781 5.7449c4.6091 9.5211 3.539 13.037-4.5597 14.98-2.1959 0.52675-4.5925 1.3935-5.3259 1.9262-3.2014 2.3255-29.306 3.3612-48.667 1.931-11.563-0.85418-34.57-0.59799-43.333 0.48253-4.4 0.54249-12.8 0.62889-18.667 0.192-5.8667-0.43689-32.567-0.50633-59.333-0.15431-51.356 0.67542-186.86 0.75732-204.25 0.12347-5.6788-0.20699-11.031 0.24355-12 1.0101-3.6358 2.8768-21.98 3.7557-49.082 2.3514-8.4333-0.43695-20.433-0.69349-26.667-0.57012-17.84 0.35315-23.58 0.33145-40.667-0.15371-8.8-0.24985-35.5 0.10374-59.333 0.78588-37.468 1.0723-84.544 1.3635-122 0.75474-5.8666-0.0953-11.824-0.1252-13.238-0.0664s-4.1027-1.4243-5.9743-3.2959c-2.8962-2.8963-3.4745-4.8414-3.8837-13.065-0.2701-5.4273 0.4491-14.548 1.6409-20.809 2.7036-14.203 2.692-23.83-0.036-30.357-1.187-2.8396-2.697-6.578-3.3553-8.3078-0.9205-2.4187-1.6051-2.8062-2.9643-1.6782-0.972 0.80668-2.0432 1.1907-2.3805 0.85335-0.3373-0.33735-5.8512 4.6489-12.253 11.081l-11.64 11.694 2.2192 5.2644c4.5988 10.91 5.4837 20.145 5.1873 54.138-0.2849 32.682-0.3406 33.287-3.3665 36.507-1.6923 1.8013-3.3533 2.9986-3.6913 2.6606-0.338-0.33798-1.7855 0.012-3.2168 0.7782-1.9982 1.0694-3.1883 0.86236-5.1266-0.89178-1.3884-1.2565-2.245-2.7363-1.9037-3.2885 0.3412-0.55224-0.2101-1.6934-1.2253-2.536-2.8448-2.361-3.4626-8.2245-3.6679-34.817-0.1399-18.115-0.7003-25.817-2.1293-29.269-3.5716-8.6273-4.1684-8.7412-10.926-2.0853-3.388 3.337-6.8408 6.0673-7.6728 6.0673-2.0527 0-53.634 55.261-53.75 57.583-0.095 1.9091-25.158 26.205-29.235 28.339-5.0659 2.6521-17.412 13.265-17.412 14.967 0 0.45937-2.0522 3.3397-4.5605 6.4008-2.5083 3.061-5.704 7.6228-7.1015 10.137-4.2661 7.6757-21.421 19.208-32.671 21.963-2.0167 0.49384-3.6667 1.4328-3.6667 2.0867 0 1.42-0.9215 1.3764-5.3333-0.2524z" fill="#201001"/>
</svg>
